<svg width="20" height="20" viewBox="0 0 20 20" fill="none" xmlns="http://www.w3.org/2000/svg">
<circle cx="10" cy="10" r="10" fill="url(#paint0_linear)"/>
<path d="M10 5.5C11.3585 5.5 11.528 5.505 12.061 5.53C12.5935 5.555 12.956 5.6385 13.275 5.7625C13.605 5.8895 13.883 6.0615 14.161 6.339C14.4152 6.58895 14.612 6.89129 14.7375 7.225C14.861 7.5435 14.945 7.9065 14.97 8.439C14.9935 8.972 15 9.1415 15 10.5C15 11.8585 14.995 12.028 14.97 12.561C14.945 13.0935 14.861 13.456 14.7375 13.775C14.6123 14.1089 14.4156 14.4113 14.161 14.661C13.911 14.9152 13.6087 15.1119 13.275 15.2375C12.9565 15.361 12.5935 15.445 12.061 15.47C11.528 15.4935 11.3585 15.5 10 15.5C8.6415 15.5 8.472 15.495 7.939 15.47C7.4065 15.445 7.044 15.361 6.725 15.2375C6.39116 15.1122 6.08876 14.9155 5.839 14.661C5.5847 14.4111 5.38797 14.1087 5.2625 13.775C5.1385 13.4565 5.055 13.0935 5.03 12.561C5.0065 12.028 5 11.8585 5 10.5C5 9.1415 5.005 8.972 5.03 8.439C5.055 7.906 5.1385 7.544 5.2625 7.225C5.38762 6.89109 5.5844 6.58866 5.839 6.339C6.08884 6.08462 6.39121 5.88786 6.725 5.7625C7.044 5.6385 7.406 5.555 7.939 5.53C8.472 5.5065 8.6415 5.5 10 5.5ZM10 8C9.33696 8 8.70107 8.26339 8.23223 8.73223C7.76339 9.20107 7.5 9.83696 7.5 10.5C7.5 11.163 7.76339 11.7989 8.23223 12.2678C8.70107 12.7366 9.33696 13 10 13C10.663 13 11.2989 12.7366 11.7678 12.2678C12.2366 11.7989 12.5 11.163 12.5 10.5C12.5 9.83696 12.2366 9.20107 11.7678 8.73223C11.2989 8.26339 10.663 8 10 8ZM13.25 7.875C13.25 7.70924 13.1842 7.55027 13.0669 7.43306C12.9497 7.31585 12.7908 7.25 12.625 7.25C12.4592 7.25 12.3003 7.31585 12.1831 7.43306C12.0658 7.55027 12 7.70924 12 7.875C12 8.04076 12.0658 8.19973 12.1831 8.31694C12.3003 8.43415 12.4592 8.5 12.625 8.5C12.7908 8.5 12.9497 8.43415 13.0669 8.31694C13.1842 8.19973 13.25 8.04076 13.25 7.875ZM10 9C10.3978 9 10.7794 9.15804 11.0607 9.43934C11.342 9.72064 11.5 10.1022 11.5 10.5C11.5 10.8978 11.342 11.2794 11.0607 11.5607C10.7794 11.842 10.3978 12 10 12C9.60218 12 9.22064 11.842 8.93934 11.5607C8.65804 11.2794 8.5 10.8978 8.5 10.5C8.5 10.1022 8.65804 9.72064 8.93934 9.43934C9.22064 9.15804 9.60218 9 10 9Z" fill="white"/>
<defs>
<linearGradient id="paint0_linear" x1="4.25" y1="17.75" x2="17.5" y2="4" gradientUnits="userSpaceOnUse">
<stop stop-color="#EEA054"/>
<stop offset="0.502762" stop-color="#D64763"/>
<stop offset="1" stop-color="#B62A99"/>
</linearGradient>
</defs>
</svg>
