<svg width="200" height="98" viewBox="0 0 200 98" fill="none" xmlns="http://www.w3.org/2000/svg">
<path d="M25.1711 29.3707C25.1711 31.5593 24.7408 33.5525 23.8803 35.3503C23.0588 37.1091 21.9245 38.6333 20.4772 39.923C19.069 41.2128 17.387 42.2094 15.4312 42.9129C13.5146 43.6163 11.4414 43.9681 9.2118 43.9681C7.64716 43.9681 6.08253 43.5577 4.51789 42.737C2.95325 41.8772 1.44729 40.5288 0 38.6919L4.34187 30.1914C4.61568 30.6995 5.0264 31.2271 5.57402 31.7743C6.12164 32.2824 6.72794 32.7318 7.39291 33.1226C8.097 33.5135 8.78152 33.8457 9.4465 34.1192C10.1506 34.3537 10.7764 34.471 11.3241 34.471C11.7935 34.471 12.2824 34.3928 12.7909 34.2365C13.2994 34.0802 13.7688 33.8457 14.1991 33.533C14.6294 33.2203 14.9618 32.8686 15.1965 32.4778C15.4703 32.0479 15.6073 31.5593 15.6073 31.0122C15.6073 30.0742 15.2943 29.2144 14.6685 28.4327C14.0817 27.612 13.3385 26.8498 12.4389 26.1464C11.5392 25.4038 10.5613 24.6612 9.50517 23.9186C8.44904 23.1761 7.47114 22.3944 6.57148 21.5737C5.71092 20.7529 4.96772 19.8345 4.34187 18.8183C3.71601 17.8022 3.40309 16.6688 3.40309 15.4181C3.40309 13.3858 4.00938 11.4903 5.22198 9.7316C6.43457 7.97288 7.94053 6.46819 9.73986 5.21755C11.5783 3.92782 13.5732 2.91166 15.7246 2.16909C17.876 1.42652 19.91 1.05523 21.8267 1.05523C22.8828 1.05523 23.8803 1.19202 24.8191 1.4656C25.7578 1.7001 26.5597 2.11047 27.2247 2.69671C27.9288 3.24387 28.4764 3.94736 28.8676 4.80718C29.2978 5.667 29.513 6.74177 29.513 8.03151C29.513 8.57866 29.4543 9.12582 29.3369 9.67298C29.2587 10.2201 29.1805 10.8064 29.1022 11.4317L20.5945 13.8939C20.6728 13.5813 20.7314 13.2686 20.7706 12.9559C20.8488 12.6433 20.8879 12.3306 20.8879 12.0179C20.8879 10.8455 20.6728 10.0052 20.2425 9.49711C19.8513 8.94995 19.3233 8.67637 18.6583 8.67637C18.3454 8.67637 17.9542 8.79362 17.4848 9.02811C17.0545 9.26261 16.6047 9.57527 16.1353 9.9661C15.705 10.3178 15.3334 10.7478 15.0205 11.2558C14.7076 11.7639 14.5511 12.3111 14.5511 12.8973C14.5511 13.8353 14.8054 14.6169 15.3139 15.2423C15.8615 15.8676 16.5265 16.4538 17.3088 17.001C18.0911 17.5482 18.9321 18.1149 19.8318 18.7011C20.7706 19.2483 21.6311 19.9713 22.4134 20.8702C23.1957 21.7691 23.8412 22.9025 24.3497 24.2704C24.8973 25.5992 25.1711 27.2993 25.1711 29.3707Z" fill="#FF4A4A"/>
<path d="M24.214 43.9095C25.3875 38.6333 26.5023 33.4744 27.5584 28.4327C27.9887 26.3222 28.4385 24.0945 28.9079 21.7496C29.3773 19.4046 29.8271 17.0987 30.2574 14.8319C30.6877 12.5651 31.0984 10.3765 31.4895 8.266C31.8807 6.15553 32.2132 4.22094 32.487 2.46221C33.6214 2.11047 34.7362 1.81735 35.8314 1.58285C36.9267 1.30927 38.0415 1.07477 39.1758 0.879361C40.3493 0.683947 41.4445 0.586241 42.4616 0.586241C44.2218 0.586241 45.6886 0.879361 46.8621 1.4656C48.0747 2.05184 49.0526 2.85304 49.7958 3.86919C50.539 4.84626 51.0671 5.9992 51.38 7.32802C51.6929 8.65683 51.8494 10.0833 51.8494 11.6076C51.8494 13.7962 51.4387 15.9067 50.6172 17.939C49.8349 19.9713 48.7592 21.7886 47.3902 23.391C46.0602 24.9543 44.5151 26.205 42.7549 27.143C41.0338 28.081 39.2345 28.55 37.3569 28.55H36.7115C36.3986 29.8788 36.1052 31.3248 35.8314 32.8881C35.5576 34.4514 35.3229 35.8975 35.1273 37.2263C34.8535 38.7896 34.5993 40.3529 34.3646 41.9163L24.214 43.9095ZM40.584 7.67976C40.1537 10.2592 39.7234 12.7019 39.2932 15.0078C38.8629 17.3137 38.3935 19.7759 37.885 22.3944C38.5108 22.2381 39.1563 21.8863 39.8212 21.3392C40.5253 20.7529 41.1707 20.0104 41.7575 19.1115C42.3442 18.1735 42.8136 17.0987 43.1656 15.8871C43.5177 14.6756 43.6937 13.4054 43.6937 12.0766C43.6937 10.6305 43.3612 9.53619 42.6963 8.79362C42.0704 8.05105 41.3663 7.67976 40.584 7.67976Z" fill="#FF4A4A"/>
<path d="M79.4793 12.1352C79.4793 15.34 79.1272 18.3689 78.4232 21.2219C77.7582 24.0359 76.8585 26.6349 75.7241 29.0189C74.5898 31.3639 73.2598 33.4744 71.7343 35.3503C70.2479 37.1872 68.6833 38.7701 67.0404 40.0989C65.3975 41.3886 63.7351 42.3852 62.0531 43.0887C60.3711 43.7531 58.7674 44.0853 57.2419 44.0853C55.951 44.0853 54.7776 43.8508 53.7214 43.3819C52.6653 42.8738 51.7461 42.1507 50.9638 41.2128C50.1814 40.2357 49.5556 39.0046 49.0862 37.5194C48.6559 35.9952 48.4408 34.1779 48.4408 32.0674C48.4408 29.8788 48.7146 27.5729 49.2622 25.1498C49.8098 22.7266 50.553 20.323 51.4918 17.939C52.4306 15.5549 53.5845 13.2881 54.9536 11.1386C56.3226 8.98903 57.8286 7.09352 59.4715 5.45204C61.1143 3.77149 62.8746 2.44267 64.7521 1.4656C66.6297 0.488534 68.5855 0 70.6195 0C72.3797 0 73.827 0.371286 74.9614 1.11386C76.1349 1.81735 77.0345 2.75533 77.6604 3.92781C78.3253 5.06122 78.7947 6.35095 79.0686 7.79701C79.3424 9.24307 79.4793 10.6891 79.4793 12.1352ZM57.1832 30.5432C57.1832 30.9731 57.2614 31.4225 57.4179 31.8915C57.5744 32.3605 57.7895 32.7709 58.0633 33.1226C58.3371 33.4744 58.6696 33.787 59.0608 34.0606C59.491 34.2951 59.9409 34.4124 60.4103 34.4124C62.1705 34.4124 63.7351 33.8066 65.1042 32.595C66.4732 31.3835 67.6076 29.8983 68.5073 28.1396C69.4069 26.3809 70.0915 24.5049 70.5608 22.5117C71.0693 20.5184 71.3236 18.7011 71.3236 17.0596C71.3236 16.5906 71.2845 16.0826 71.2063 15.5354C71.1671 14.9882 71.0498 14.4802 70.8542 14.0112C70.6977 13.5422 70.4239 13.1513 70.0328 12.8387C69.6807 12.4869 69.1918 12.3111 68.5659 12.3111C67.3142 12.3111 66.1603 12.6237 65.1042 13.2491C64.048 13.8744 63.0897 14.7147 62.2292 15.7699C61.4077 16.786 60.6841 17.9585 60.0582 19.2873C59.4324 20.5771 58.8847 21.9059 58.4153 23.2738C57.9851 24.6026 57.6721 25.9119 57.4766 27.2016C57.281 28.4913 57.1832 29.6052 57.1832 30.5432Z" fill="#FF4A4A"/>
<path d="M75.7924 43.9095C76.8486 38.7115 77.8656 33.6307 78.8435 28.6672C79.1955 26.5567 79.5867 24.3681 80.017 22.1013C80.4472 19.7954 80.8384 17.5286 81.1904 15.3009C81.5816 13.0341 81.9336 10.865 82.2466 8.79362C82.5986 6.68315 82.8724 4.7681 83.068 3.04845C85.2976 2.34496 87.7033 1.83689 90.2849 1.52423C92.8666 1.17248 95.4286 0.996611 97.9712 0.996611C99.4967 0.996611 100.748 1.17248 101.726 1.52423C102.743 1.87597 103.526 2.38405 104.073 3.04845C104.66 3.67378 105.071 4.41635 105.305 5.27617C105.54 6.13599 105.657 7.09352 105.657 8.14875C105.657 9.71206 105.384 11.2558 104.836 12.7801C104.288 14.2652 103.545 15.6917 102.606 17.0596C101.707 18.3884 100.651 19.6195 99.438 20.7529C98.2645 21.8473 96.9933 22.7462 95.6242 23.4496C96.3283 25.013 97.0715 26.7326 97.8538 28.6086C98.6753 30.4455 99.438 32.2042 100.142 33.8847C100.924 35.8389 101.726 37.793 102.548 39.7472L93.4533 42.9129C92.671 40.4116 91.9669 38.0666 91.341 35.878C91.0672 34.9791 90.7934 34.0606 90.5196 33.1226C90.2458 32.1456 89.9915 31.2271 89.7568 30.3673C89.5221 29.5075 89.3266 28.7454 89.1701 28.081C89.0136 27.3775 88.9158 26.8108 88.8767 26.3809L88.114 26.6154C87.8793 27.866 87.5859 29.3316 87.2339 31.0122C86.9209 32.6927 86.6276 34.3147 86.3537 35.878C86.0017 37.7149 85.6497 39.5713 85.2976 41.4473L75.7924 43.9095ZM89.5808 18.4666C90.324 18.3884 91.2237 18.0758 92.2798 17.5286C93.3751 16.9815 94.4116 16.3366 95.3895 15.594C96.3674 14.8124 97.2084 14.0112 97.9125 13.1904C98.6166 12.3697 98.9686 11.6467 98.9686 11.0213C98.9686 10.5914 98.8317 10.2592 98.5579 10.0247C98.2841 9.75114 97.8929 9.55573 97.3844 9.43848C96.915 9.28215 96.387 9.18445 95.8002 9.14536C95.2135 9.10628 94.6072 9.08674 93.9813 9.08674C93.5511 9.08674 93.1012 9.10628 92.6319 9.14536C92.2016 9.14536 91.8104 9.14536 91.4584 9.14536L89.5808 18.4666Z" fill="#FF4A4A"/>
<path d="M106.909 43.9095C107.809 39.6104 108.67 35.3699 109.491 31.188C109.843 29.4293 110.195 27.5924 110.547 25.6774C110.899 23.7623 111.232 21.8863 111.545 20.0495C111.897 18.1735 112.19 16.3757 112.425 14.656C112.698 12.8973 112.933 11.2949 113.129 9.84885C112.229 9.7316 111.31 9.69252 110.371 9.7316C109.471 9.77069 108.572 9.65344 107.672 9.37986C107.711 8.75454 107.731 8.03151 107.731 7.21077C107.731 6.39003 107.75 5.56929 107.789 4.74855C107.829 3.84965 107.868 2.89212 107.907 1.87597C108.924 1.95414 109.941 2.01276 110.958 2.05184C111.975 2.09093 112.992 2.11047 114.009 2.11047C116.004 2.11047 117.92 2.07139 119.759 1.99322C121.636 1.87597 123.358 1.75872 124.922 1.64148C126.526 1.48514 128.091 1.30927 129.616 1.11386L128.971 4.27956C128.775 5.17847 128.58 6.09691 128.384 7.03489C128.227 7.97288 128.071 8.77408 127.915 9.43848C127.054 9.67298 126.174 9.84885 125.274 9.9661C124.414 10.0443 123.553 10.1615 122.693 10.3178C122.419 11.6467 122.125 13.1318 121.812 14.7733C121.5 16.3757 121.187 18.0562 120.874 19.815C120.6 21.5346 120.326 23.2933 120.052 25.0911C119.778 26.8889 119.505 28.6086 119.231 30.25C118.605 34.1192 118.018 38.1252 117.471 42.268L106.909 43.9095Z" fill="#FF4A4A"/>
<path d="M58.6739 97.7655C59.8474 92.4893 60.9622 87.3304 62.0183 82.2887C62.4486 80.1783 62.8984 77.9505 63.3678 75.6056C63.8372 73.2606 64.287 70.9547 64.7173 68.6879C65.1476 66.4211 65.5583 64.2325 65.9494 62.122C66.3406 60.0116 66.6731 58.077 66.9469 56.3182C68.0813 55.9665 69.1961 55.6734 70.2913 55.4389C71.3866 55.1653 72.5014 54.9308 73.6357 54.7354C74.8092 54.54 75.9044 54.4423 76.9215 54.4423C78.6817 54.4423 80.1485 54.7354 81.322 55.3216C82.5346 55.9079 83.5125 56.7091 84.2557 57.7252C84.9989 58.7023 85.527 59.8552 85.8399 61.184C86.1528 62.5128 86.3093 63.9394 86.3093 65.4636C86.3093 67.6522 85.8985 69.7627 85.0771 71.795C84.2948 73.8273 83.2191 75.6447 81.8501 77.247C80.5201 78.8104 78.975 80.061 77.2148 80.999C75.4937 81.937 73.6944 82.406 71.8168 82.406H71.1714C70.8585 83.7348 70.5651 85.1808 70.2913 86.7442C70.0175 88.3075 69.7828 89.7535 69.5872 91.0823C69.3134 92.6457 69.0592 94.209 68.8245 95.7723L58.6739 97.7655ZM75.0439 61.5358C74.6136 64.1152 74.1833 66.5579 73.7531 68.8638C73.3228 71.1697 72.8534 73.6319 72.3449 76.2504C72.9707 76.0941 73.6162 75.7424 74.2811 75.1952C74.9852 74.609 75.6306 73.8664 76.2174 72.9675C76.8041 72.0295 77.2735 70.9547 77.6255 69.7432C77.9776 68.5316 78.1536 67.2614 78.1536 65.9326C78.1536 64.4865 77.8211 63.3922 77.1561 62.6496C76.5303 61.9071 75.8262 61.5358 75.0439 61.5358Z" fill="#424CFF"/>
<path d="M113.939 65.9912C113.939 69.196 113.587 72.2249 112.883 75.078C112.218 77.8919 111.318 80.4909 110.184 82.875C109.05 85.2199 107.72 87.3304 106.194 89.2064C104.708 91.0433 103.143 92.6261 101.5 93.9549C99.8574 95.2447 98.195 96.2413 96.513 96.9448C94.831 97.6092 93.2273 97.9414 91.7018 97.9414C90.4109 97.9414 89.2375 97.7069 88.1813 97.2379C87.1252 96.7298 86.206 96.0068 85.4237 95.0688C84.6413 94.0917 84.0155 92.8606 83.5461 91.3755C83.1158 89.8512 82.9007 88.0339 82.9007 85.9234C82.9007 83.7348 83.1745 81.4289 83.7221 79.0058C84.2697 76.5826 85.0129 74.1791 85.9517 71.795C86.8905 69.411 88.0444 67.1442 89.4135 64.9946C90.7825 62.8451 92.2885 60.9495 93.9314 59.3081C95.5742 57.6275 97.3345 56.2987 99.212 55.3216C101.09 54.3446 103.045 53.856 105.079 53.856C106.84 53.856 108.287 54.2273 109.421 54.9699C110.595 55.6734 111.494 56.6114 112.12 57.7838C112.785 58.9172 113.255 60.207 113.528 61.653C113.802 63.0991 113.939 64.5452 113.939 65.9912ZM91.6431 84.3992C91.6431 84.8291 91.7213 85.2786 91.8778 85.7476C92.0343 86.2165 92.2494 86.6269 92.5232 86.9787C92.797 87.3304 93.1295 87.6431 93.5207 87.9166C93.9509 88.1511 94.4008 88.2684 94.8702 88.2684C96.6304 88.2684 98.195 87.6626 99.5641 86.451C100.933 85.2395 102.067 83.7543 102.967 81.9956C103.867 80.2369 104.551 78.3609 105.021 76.3677C105.529 74.3745 105.784 72.5571 105.784 70.9156C105.784 70.4467 105.744 69.9386 105.666 69.3914C105.627 68.8443 105.51 68.3362 105.314 67.8672C105.158 67.3982 104.884 67.0074 104.493 66.6947C104.141 66.343 103.652 66.1671 103.026 66.1671C101.774 66.1671 100.62 66.4797 99.5641 67.1051C98.5079 67.7304 97.5496 68.5707 96.6891 69.6259C95.8676 70.6421 95.144 71.8145 94.5181 73.1434C93.8923 74.4331 93.3446 75.7619 92.8752 77.1298C92.445 78.4586 92.1321 79.7679 91.9365 81.0576C91.7409 82.3474 91.6431 83.4612 91.6431 84.3992Z" fill="#424CFF"/>
<path d="M119.992 96.5344C119.64 96.5344 118.936 96.593 117.88 96.7103C116.863 96.7884 115.807 96.9057 114.712 97.062C113.616 97.1793 112.619 97.2965 111.719 97.4138C110.859 97.531 110.389 97.6092 110.311 97.6483C110.702 95.9677 111.093 94.1113 111.484 92.079C111.915 90.0076 112.345 87.858 112.775 85.6303C113.206 83.3635 113.616 81.0772 114.007 78.7713C114.399 76.4654 114.77 74.2377 115.122 72.0881C115.944 67.0855 116.765 61.9462 117.587 56.67L126.74 55.2044C125.84 60.4415 124.96 65.5808 124.099 70.6225C123.747 72.7721 123.376 74.9998 122.985 77.3057C122.633 79.6116 122.261 81.8979 121.87 84.1647C121.518 86.4315 121.185 88.6397 120.872 90.7892C120.559 92.8997 120.266 94.8147 119.992 96.5344Z" fill="#424CFF"/>
<path d="M122.172 98C123.345 92.3721 124.46 86.92 125.516 81.6439C125.907 79.3771 126.318 77.0321 126.748 74.609C127.218 72.1858 127.648 69.8018 128.039 67.4568C128.43 65.0728 128.782 62.806 129.095 60.6564C129.408 58.4678 129.643 56.4941 129.799 54.7354C130.308 54.7745 130.738 54.794 131.09 54.794C131.442 54.794 131.853 54.794 132.322 54.794C132.87 54.794 133.535 54.794 134.317 54.794C135.1 54.7549 135.882 54.7158 136.664 54.6768C137.447 54.6377 138.288 54.5986 139.187 54.5595C139.735 57.2953 140.224 59.9334 140.654 62.4738C141.084 64.7015 141.515 66.9878 141.945 69.3328C142.414 71.6778 142.825 73.671 143.177 75.3125C143.334 74.5308 143.51 73.6319 143.705 72.6157C143.901 71.5605 144.116 70.4662 144.351 69.3328C144.585 68.1994 144.8 67.066 144.996 65.9326C145.231 64.7601 145.465 63.6072 145.7 62.4738C146.248 59.9334 146.815 57.3148 147.402 54.6181L154.56 53.7388C153.23 59.7184 152.056 65.3854 151.039 70.7398C150.57 73.0457 150.101 75.3906 149.631 77.7747C149.201 80.1196 148.79 82.3864 148.399 84.5751C148.008 86.7246 147.675 88.7374 147.402 90.6134C147.128 92.4502 146.913 93.994 146.756 95.2447C146.639 95.2447 146.169 95.3424 145.348 95.5378C144.566 95.6941 143.646 95.8895 142.59 96.124C141.573 96.3585 140.537 96.593 139.481 96.8275C138.464 97.062 137.701 97.277 137.192 97.4724C136.958 94.3458 136.703 91.3755 136.43 88.5615C136.312 87.3499 136.175 86.1188 136.019 84.8682C135.902 83.5785 135.765 82.3474 135.608 81.1749C135.452 80.0024 135.295 78.9081 135.139 77.8919C134.982 76.8758 134.826 75.9964 134.669 75.2538C134.552 75.9964 134.396 76.8562 134.2 77.8333C134.004 78.8104 133.809 79.8461 133.613 80.9404C133.418 82.0347 133.222 83.1876 133.027 84.3992C132.831 85.5717 132.616 86.7051 132.381 87.7994C131.873 90.4179 131.325 93.1537 130.738 96.0068L122.172 98Z" fill="#424CFF"/>
<path d="M153.688 97.7655C154.588 93.4664 155.449 89.2259 156.27 85.0441C156.622 83.2853 156.974 81.4484 157.326 79.5334C157.678 77.6183 158.011 75.7424 158.324 73.9055C158.676 72.0295 158.969 70.2317 159.204 68.5121C159.478 66.7533 159.712 65.1509 159.908 63.7049C159.008 63.5876 158.089 63.5485 157.15 63.5876C156.251 63.6267 155.351 63.5095 154.451 63.2359C154.49 62.6106 154.51 61.8875 154.51 61.0668C154.51 60.2461 154.529 59.4253 154.569 58.6046C154.608 57.7057 154.647 56.7481 154.686 55.732C155.703 55.8102 156.72 55.8688 157.737 55.9079C158.754 55.9469 159.771 55.9665 160.788 55.9665C162.783 55.9665 164.7 55.9274 166.538 55.8492C168.416 55.732 170.137 55.6147 171.701 55.4975C173.305 55.3412 174.87 55.1653 176.395 54.9699L175.75 58.1356C175.554 59.0345 175.359 59.9529 175.163 60.8909C175.007 61.8289 174.85 62.6301 174.694 63.2945C173.833 63.529 172.953 63.7049 172.053 63.8221C171.193 63.9003 170.332 64.0175 169.472 64.1739C169.198 65.5027 168.905 66.9878 168.592 68.6293C168.279 70.2317 167.966 71.9123 167.653 73.671C167.379 75.3906 167.105 77.1493 166.831 78.9472C166.558 80.745 166.284 82.4646 166.01 84.1061C165.384 87.9753 164.797 91.9812 164.25 96.124L153.688 97.7655Z" fill="#424CFF"/>
<path d="M195.658 83.2267C195.658 85.4153 195.228 87.4086 194.367 89.2064C193.546 90.9651 192.411 92.4893 190.964 93.7791C189.556 95.0688 187.874 96.0654 185.918 96.7689C184.002 97.4724 181.928 97.8241 179.699 97.8241C178.134 97.8241 176.57 97.4138 175.005 96.593C173.44 95.7332 171.934 94.3848 170.487 92.5479L174.829 84.0474C175.103 84.5555 175.513 85.0831 176.061 85.6303C176.609 86.1384 177.215 86.5878 177.88 86.9787C178.584 87.3695 179.269 87.7017 179.934 87.9753C180.638 88.2098 181.263 88.327 181.811 88.327C182.28 88.327 182.769 88.2488 183.278 88.0925C183.786 87.9362 184.256 87.7017 184.686 87.389C185.116 87.0764 185.449 86.7246 185.684 86.3338C185.957 85.9039 186.094 85.4153 186.094 84.8682C186.094 83.9302 185.781 83.0704 185.155 82.2887C184.569 81.468 183.826 80.7059 182.926 80.0024C182.026 79.2598 181.048 78.5172 179.992 77.7747C178.936 77.0321 177.958 76.2504 177.059 75.4297C176.198 74.609 175.455 73.6905 174.829 72.6744C174.203 71.6582 173.89 70.5248 173.89 69.2742C173.89 67.2419 174.496 65.3464 175.709 63.5876C176.922 61.8289 178.428 60.3242 180.227 59.0736C182.065 57.7838 184.06 56.7677 186.212 56.0251C188.363 55.2825 190.397 54.9113 192.314 54.9113C193.37 54.9113 194.367 55.048 195.306 55.3216C196.245 55.5561 197.047 55.9665 197.712 56.5527C198.416 57.0999 198.963 57.8034 199.355 58.6632C199.785 59.523 200 60.5978 200 61.8875C200 62.4347 199.941 62.9818 199.824 63.529C199.746 64.0762 199.668 64.6624 199.589 65.2877L191.082 67.7499C191.16 67.4373 191.218 67.1246 191.258 66.812C191.336 66.4993 191.375 66.1866 191.375 65.874C191.375 64.7015 191.16 63.8612 190.73 63.3531C190.338 62.806 189.81 62.5324 189.145 62.5324C188.832 62.5324 188.441 62.6496 187.972 62.8841C187.542 63.1186 187.092 63.4313 186.622 63.8221C186.192 64.1739 185.82 64.6038 185.508 65.1119C185.195 65.6199 185.038 66.1671 185.038 66.7533C185.038 67.6913 185.292 68.473 185.801 69.0983C186.349 69.7236 187.014 70.3099 187.796 70.857C188.578 71.4042 189.419 71.9709 190.319 72.5571C191.258 73.1043 192.118 73.8273 192.9 74.7262C193.683 75.6251 194.328 76.7585 194.837 78.1264C195.384 79.4552 195.658 81.1553 195.658 83.2267Z" fill="#424CFF"/>
</svg>
