<svg width="186" height="95" viewBox="0 0 186 95" fill="none" xmlns="http://www.w3.org/2000/svg">
<path d="M24.9676 29.3138C24.9676 31.4982 24.5408 33.4876 23.6872 35.2819C22.8724 37.0372 21.7472 38.5585 20.3117 39.8457C18.9149 41.133 17.2465 42.1277 15.3065 42.8298C13.4053 43.5319 11.3489 43.883 9.13733 43.883C7.58535 43.883 6.03336 43.4734 4.48137 42.6543C2.92938 41.7961 1.43559 40.4504 0 38.617L4.30677 30.133C4.57837 30.6401 4.98577 31.1667 5.52896 31.7128C6.07216 32.2199 6.67355 32.6684 7.33315 33.0585C8.03154 33.4486 8.71054 33.7801 9.37013 34.0532C10.0685 34.2872 10.6893 34.4043 11.2325 34.4043C11.6981 34.4043 12.1831 34.3262 12.6875 34.1702C13.1919 34.0142 13.6575 33.7801 14.0843 33.4681C14.5111 33.156 14.8409 32.805 15.0737 32.4149C15.3453 31.9858 15.4811 31.4982 15.4811 30.9521C15.4811 30.016 15.1707 29.1578 14.5499 28.3777C13.9679 27.5585 13.2307 26.7979 12.3383 26.0957C11.4459 25.3546 10.4759 24.6135 9.42833 23.8723C8.38074 23.1312 7.41075 22.3511 6.51835 21.5319C5.66476 20.7128 4.92757 19.7961 4.30677 18.7819C3.68597 17.7677 3.37558 16.6365 3.37558 15.3883C3.37558 13.3599 3.97697 11.4681 5.17976 9.71277C6.38256 7.95745 7.87634 6.45567 9.66113 5.20745C11.4847 3.92021 13.4635 2.90603 15.5975 2.16489C17.7315 1.42376 19.7491 1.05319 21.6502 1.05319C22.6978 1.05319 23.6872 1.18972 24.6184 1.46276C25.5496 1.69681 26.345 2.10638 27.0046 2.69149C27.703 3.23759 28.2462 3.93972 28.6342 4.79787C29.061 5.65603 29.2744 6.72872 29.2744 8.01596C29.2744 8.56206 29.2162 9.10816 29.0998 9.65426C29.0222 10.2004 28.9446 10.7855 28.867 11.4096L20.4281 13.867C20.5057 13.555 20.5639 13.2429 20.6027 12.9309C20.6803 12.6188 20.7191 12.3067 20.7191 11.9947C20.7191 10.8245 20.5057 9.98582 20.0789 9.47872C19.6909 8.93262 19.1671 8.65957 18.5075 8.65957C18.1971 8.65957 17.8091 8.77659 17.3435 9.01064C16.9167 9.24468 16.4705 9.55674 16.0049 9.94681C15.5781 10.2979 15.2095 10.7269 14.8991 11.234C14.5887 11.7411 14.4335 12.2872 14.4335 12.8723C14.4335 13.8085 14.6857 14.5887 15.1901 15.2128C15.7333 15.8369 16.3929 16.422 17.1689 16.9681C17.9449 17.5142 18.7791 18.0798 19.6715 18.6649C20.6027 19.211 21.4562 19.9326 22.2322 20.8298C23.0082 21.7269 23.6484 22.8582 24.1528 24.2234C24.696 25.5496 24.9676 27.2465 24.9676 29.3138Z" fill="#FF4A4A"/>
<path d="M24.0182 43.8245C25.1822 38.5585 26.288 33.4096 27.3356 28.3777C27.7624 26.2713 28.2086 24.0479 28.6742 21.7074C29.1398 19.367 29.586 17.0656 30.0128 14.8032C30.4396 12.5408 30.847 10.3564 31.235 8.25C31.623 6.14362 31.9528 4.21277 32.2244 2.45745C33.3496 2.10638 34.4554 1.81383 35.5418 1.57979C36.6282 1.30674 37.7339 1.07269 38.8591 0.877659C40.0231 0.682623 41.1095 0.585106 42.1183 0.585106C43.8643 0.585106 45.3193 0.877659 46.4833 1.46276C47.6861 2.04787 48.6561 2.84752 49.3933 3.8617C50.1305 4.83688 50.6543 5.98759 50.9647 7.31383C51.2751 8.64007 51.4302 10.0638 51.4302 11.5851C51.4302 13.7695 51.0229 15.8759 50.2081 17.9043C49.4321 19.9326 48.3651 21.7465 47.0071 23.3457C45.6879 24.906 44.1553 26.1543 42.4093 27.0904C40.7021 28.0266 38.9173 28.4947 37.055 28.4947H36.4148C36.1044 29.8209 35.8134 31.2642 35.5418 32.8245C35.2702 34.3848 35.0374 35.828 34.8434 37.1543C34.5718 38.7145 34.3196 40.2748 34.0868 41.8351L24.0182 43.8245ZM40.2559 7.66489C39.8291 10.2394 39.4023 12.6773 38.9755 14.9787C38.5487 17.2801 38.0831 19.7376 37.5787 22.3511C38.1995 22.195 38.8397 21.844 39.4993 21.2979C40.1977 20.7128 40.8379 19.9716 41.4199 19.0745C42.0019 18.1383 42.4675 17.0656 42.8167 15.8564C43.1659 14.6472 43.3405 13.3794 43.3405 12.0532C43.3405 10.6099 43.0107 9.51773 42.3511 8.77659C41.7303 8.03546 41.0319 7.66489 40.2559 7.66489Z" fill="#FF4A4A"/>
<path d="M78.8368 12.1117C78.8368 15.3103 78.4876 18.3333 77.7892 21.1809C77.1296 23.9894 76.2372 26.5833 75.112 28.9628C73.9868 31.3032 72.6676 33.4096 71.1544 35.2819C69.6801 37.1152 68.1281 38.695 66.4985 40.0213C64.8689 41.3085 63.2199 42.3032 61.5515 43.0053C59.8831 43.6684 58.2923 44 56.7792 44C55.4988 44 54.3348 43.766 53.2872 43.2979C52.2396 42.7908 51.3278 42.0691 50.5518 41.133C49.7758 40.1578 49.155 38.9291 48.6894 37.4468C48.2626 35.9255 48.0492 34.1117 48.0492 32.0053C48.0492 29.8209 48.3208 27.5195 48.864 25.1011C49.4072 22.6826 50.1444 20.2837 51.0756 17.9043C52.0068 15.5248 53.1514 13.2624 54.5094 11.117C55.8674 8.97163 57.3611 7.07979 58.9907 5.44149C60.6203 3.76419 62.3663 2.43794 64.2287 1.46276C66.0911 0.487588 68.0311 0 70.0487 0C71.7946 0 73.2302 0.370567 74.3554 1.1117C75.5194 1.81383 76.4118 2.75 77.0326 3.92021C77.6922 5.05142 78.1578 6.33865 78.4294 7.78192C78.701 9.22518 78.8368 10.6684 78.8368 12.1117ZM56.721 30.484C56.721 30.9131 56.7986 31.3617 56.9538 31.8298C57.1089 32.2979 57.3224 32.7074 57.5939 33.0585C57.8655 33.4096 58.1953 33.7216 58.5833 33.9947C59.0101 34.2287 59.4563 34.3457 59.9219 34.3457C61.6679 34.3457 63.2199 33.7411 64.5779 32.5319C65.9359 31.3227 67.0611 29.8404 67.9535 28.0851C68.8459 26.3298 69.5249 24.4574 69.9905 22.4681C70.4949 20.4787 70.7471 18.6649 70.7471 17.0266C70.7471 16.5585 70.7083 16.0514 70.6307 15.5053C70.5919 14.9592 70.4755 14.4521 70.2815 13.984C70.1263 13.516 69.8547 13.1259 69.4667 12.8138C69.1175 12.4628 68.6325 12.2872 68.0117 12.2872C66.7701 12.2872 65.6255 12.5993 64.5779 13.2234C63.5303 13.8475 62.5797 14.6862 61.7261 15.7394C60.9113 16.7535 60.1935 17.9238 59.5727 19.25C58.9519 20.5372 58.4087 21.8635 57.9431 23.2287C57.5163 24.555 57.206 25.8617 57.012 27.1489C56.818 28.4362 56.721 29.5479 56.721 30.484Z" fill="#FF4A4A"/>
<path d="M75.1798 43.8245C76.2274 38.6365 77.2362 33.5656 78.2061 28.6117C78.5553 26.5053 78.9433 24.3209 79.3701 22.0585C79.7969 19.7571 80.1849 17.4947 80.5341 15.2713C80.9221 13.0089 81.2713 10.844 81.5817 8.77659C81.9309 6.67021 82.2025 4.75886 82.3965 3.04255C84.6081 2.34042 86.9943 1.83333 89.5551 1.52127C92.1159 1.17021 94.6572 0.994682 97.1792 0.994682C98.6924 0.994682 99.934 1.17021 100.904 1.52127C101.913 1.87234 102.689 2.37943 103.232 3.04255C103.814 3.66667 104.221 4.4078 104.454 5.26596C104.687 6.12411 104.803 7.07979 104.803 8.13298C104.803 9.69326 104.532 11.234 103.989 12.7553C103.445 14.2376 102.708 15.6613 101.777 17.0266C100.885 18.3528 99.837 19.5816 98.6342 20.7128C97.4702 21.805 96.2092 22.7021 94.8512 23.4043C95.5496 24.9645 96.2868 26.6808 97.0628 28.5532C97.8776 30.3865 98.6342 32.1418 99.3326 33.8191C100.109 35.7695 100.904 37.7199 101.719 39.6702L92.6978 42.8298C91.9219 40.1383 91.2235 37.6028 90.6027 35.2234C90.3311 34.2482 90.0595 33.2535 89.7879 32.2394C89.5163 31.1862 89.2641 30.211 89.0313 29.3138C88.7985 28.3777 88.6045 27.5585 88.4493 26.8564C88.2941 26.1543 88.1971 25.6082 88.1583 25.2181L87.4017 25.4521C87.1689 26.7004 86.8779 28.2216 86.5287 30.016C86.2183 31.8103 85.9273 33.5461 85.6557 35.2234C85.3065 37.2128 84.9573 39.2606 84.6081 41.367L75.1798 43.8245ZM88.8567 18.4309C89.5939 18.3528 90.4863 18.0408 91.5339 17.4947C92.6203 16.9486 93.6484 16.305 94.6184 15.5638C95.5884 14.7837 96.4226 13.984 97.121 13.1649C97.8194 12.3457 98.1686 11.6241 98.1686 11C98.1686 10.5709 98.0328 10.2394 97.7612 10.0053C97.4896 9.73227 97.1016 9.53723 96.5972 9.42021C96.1316 9.26419 95.6078 9.16667 95.0258 9.12766C94.4438 9.08865 93.8424 9.06915 93.2216 9.06915C92.7948 9.06915 92.3487 9.08865 91.8831 9.12766C91.4563 9.12766 91.0683 9.12766 90.7191 9.12766L88.8567 18.4309Z" fill="#FF4A4A"/>
<path d="M105.477 43.8245C106.369 39.5337 107.223 35.3014 108.038 31.1277C108.387 29.3723 108.736 27.539 109.085 25.6277C109.434 23.7163 109.764 21.844 110.075 20.0106C110.424 18.1383 110.715 16.344 110.948 14.6277C111.219 12.8723 111.452 11.273 111.646 9.82979C110.754 9.71277 109.842 9.67376 108.911 9.71277C108.018 9.75177 107.126 9.63475 106.233 9.3617C106.272 8.73759 106.292 8.01596 106.292 7.19681C106.292 6.37766 106.311 5.55851 106.35 4.73936C106.389 3.8422 106.427 2.88652 106.466 1.87234C107.475 1.95035 108.484 2.00886 109.493 2.04787C110.501 2.08688 111.51 2.10638 112.519 2.10638C114.498 2.10638 116.399 2.06738 118.222 1.98936C120.085 1.87234 121.792 1.75532 123.344 1.6383C124.935 1.48227 126.487 1.30674 128 1.1117L127.36 4.27128C127.166 5.16844 126.972 6.08511 126.778 7.02128C126.623 7.95745 126.467 8.75709 126.312 9.42021C125.459 9.65426 124.586 9.82979 123.693 9.94681C122.84 10.0248 121.986 10.1418 121.132 10.2979C120.861 11.6241 120.57 13.1064 120.259 14.7447C119.949 16.344 119.639 18.0213 119.328 19.7766C119.057 21.4929 118.785 23.2482 118.513 25.0426C118.242 26.8369 117.97 28.5532 117.699 30.1915C117.078 34.0532 116.496 38.0514 115.953 42.1862L105.477 43.8245Z" fill="#FF4A4A"/>
<path d="M69.9855 80.5115C69.9855 82.6838 69.5584 84.6622 68.7041 86.4466C67.8888 88.1922 66.7628 89.705 65.3262 90.9851C63.9284 92.2652 62.2588 93.2544 60.3174 93.9526C58.4149 94.6509 56.357 95 54.1439 95C52.5908 95 51.0377 94.5927 49.4846 93.7781C47.9315 92.9247 46.4366 91.5864 45 89.7632L49.3098 81.3261C49.5816 81.8304 49.9893 82.3541 50.5329 82.8972C51.0765 83.4014 51.6783 83.8475 52.3384 84.2355C53.0373 84.6234 53.7168 84.9531 54.3768 85.2246C55.0757 85.4574 55.697 85.5738 56.2405 85.5738C56.7065 85.5738 57.1918 85.4962 57.6966 85.341C58.2013 85.1858 58.6673 84.9531 59.0944 84.6428C59.5215 84.3324 59.8515 83.9833 60.0845 83.5954C60.3562 83.1687 60.4921 82.6838 60.4921 82.1407C60.4921 81.2097 60.1815 80.3563 59.5603 79.5805C58.9779 78.7659 58.2402 78.0095 57.3471 77.3112C56.4541 76.5742 55.4834 75.8372 54.4351 75.1001C53.3867 74.3631 52.416 73.5873 51.523 72.7727C50.6688 71.9581 49.9311 71.0465 49.3098 70.0379C48.6886 69.0293 48.378 67.9044 48.378 66.6631C48.378 64.6459 48.9798 62.7645 50.1835 61.0189C51.3871 59.2733 52.882 57.7799 54.668 56.5386C56.4929 55.2585 58.4731 54.2499 60.6086 53.5129C62.7441 52.7758 64.7632 52.4073 66.6657 52.4073C67.714 52.4073 68.7041 52.5431 69.636 52.8146C70.5679 53.0474 71.3638 53.4547 72.0239 54.0365C72.7228 54.5796 73.2664 55.2779 73.6546 56.1313C74.0817 56.9847 74.2953 58.0514 74.2953 59.3315C74.2953 59.8746 74.2371 60.4177 74.1206 60.9608C74.0429 61.5038 73.9653 62.0857 73.8876 62.7064L65.4426 65.1502C65.5203 64.8399 65.5785 64.5295 65.6174 64.2192C65.695 63.9089 65.7338 63.5986 65.7338 63.2882C65.7338 62.1245 65.5203 61.2905 65.0932 60.7862C64.7049 60.2431 64.1808 59.9716 63.5207 59.9716C63.2101 59.9716 62.8218 60.088 62.3559 60.3207C61.9288 60.5535 61.4822 60.8638 61.0163 61.2517C60.5892 61.6008 60.2204 62.0275 59.9097 62.5318C59.5991 63.0361 59.4438 63.5792 59.4438 64.161C59.4438 65.092 59.6962 65.8678 60.2009 66.4885C60.7445 67.1092 61.4046 67.691 62.1811 68.2341C62.9577 68.7772 63.7925 69.3396 64.6855 69.9215C65.6174 70.4646 66.4716 71.1822 67.2481 72.0744C68.0247 72.9666 68.6653 74.0916 69.1701 75.4493C69.7137 76.7682 69.9855 78.4556 69.9855 80.5115Z" fill="#424CFF"/>
<path d="M69.4431 94.9418C70.4914 89.7826 71.5009 84.7397 72.4716 79.8133C72.8211 77.7185 73.2093 75.5462 73.6364 73.2963C74.0635 71.0077 74.4518 68.7578 74.8013 66.5467C75.1895 64.2968 75.539 62.1439 75.8496 60.088C76.1991 57.9932 76.4708 56.0925 76.665 54.3857C78.8781 53.6874 81.266 53.1831 83.8286 52.8728C86.3913 52.5237 88.9345 52.3491 91.4582 52.3491C92.9725 52.3491 94.215 52.5237 95.1857 52.8728C96.1952 53.2219 96.9717 53.7262 97.5153 54.3857C98.0977 55.0063 98.5054 55.7433 98.7384 56.5968C98.9713 57.4502 99.0878 58.4005 99.0878 59.4479C99.0878 60.9996 98.816 62.5318 98.2724 64.0447C97.7289 65.5187 96.9911 66.9346 96.0593 68.2923C95.1663 69.6112 94.1179 70.8331 92.9143 71.9581C91.7494 73.0442 90.4876 73.9364 89.1286 74.6346C89.8275 76.1863 90.5652 77.8931 91.3418 79.7551C92.1571 81.5783 92.9143 83.3239 93.6132 84.9919C94.3897 86.9314 95.1857 88.871 96.001 90.8106L86.9737 93.9526C86.1971 91.2761 85.4982 88.7546 84.877 86.3884C84.6052 85.4186 84.3334 84.4294 84.0616 83.4208C83.7898 82.3735 83.5374 81.4037 83.3045 80.5115C83.0715 79.5805 82.8774 78.7659 82.7221 78.0677C82.5668 77.3694 82.4697 76.8263 82.4309 76.4384L81.6737 76.6712C81.4408 77.9125 81.1496 79.4254 80.8001 81.2097C80.4895 82.9941 80.1983 84.7203 79.9265 86.3884C79.577 88.3667 79.2276 90.4033 78.8781 92.498L69.4431 94.9418ZM83.1298 69.6888C83.8675 69.6112 84.7605 69.3009 85.8088 68.7578C86.896 68.2147 87.9249 67.5747 88.8956 66.8376C89.8663 66.0618 90.7011 65.2666 91.4 64.452C92.0989 63.6373 92.4483 62.9197 92.4483 62.2991C92.4483 61.8724 92.3124 61.5426 92.0406 61.3099C91.7689 61.0383 91.3806 60.8444 90.8758 60.728C90.4099 60.5728 89.8857 60.4759 89.3033 60.4371C88.7209 60.3983 88.1191 60.3789 87.4978 60.3789C87.0707 60.3789 86.6242 60.3983 86.1583 60.4371C85.7312 60.4371 85.3429 60.4371 84.9935 60.4371L83.1298 69.6888Z" fill="#424CFF"/>
<path d="M95.5547 94.9418L103.184 53.571L121.588 52C121.317 52.8534 121.084 53.7262 120.89 54.6184C120.695 55.3554 120.501 56.1313 120.307 56.9459C120.152 57.7217 120.016 58.4199 119.899 59.0406C119.511 59.0794 118.948 59.1182 118.21 59.157C117.512 59.157 116.754 59.1764 115.939 59.2152C115.124 59.2152 114.289 59.2152 113.435 59.2152C112.619 59.2152 111.901 59.2152 111.28 59.2152L109.241 69.6306C110.445 69.553 111.571 69.4948 112.619 69.456C113.474 69.4172 114.347 69.3978 115.24 69.3978C116.133 69.3978 116.793 69.3784 117.22 69.3396C117.065 70.4258 116.91 71.4926 116.754 72.5399C116.638 73.5873 116.483 74.654 116.289 75.7402C115.9 75.779 115.26 75.8178 114.367 75.8566C113.512 75.8566 112.639 75.876 111.746 75.9148C110.736 75.9535 109.63 75.9923 108.426 76.0311L106.446 86.7375L114.949 85.3992L114.367 92.0325L95.5547 94.9418Z" fill="#424CFF"/>
<path d="M115.404 94.9418L123.034 53.571L141.438 52C141.166 52.8534 140.933 53.7262 140.739 54.6184C140.545 55.3554 140.351 56.1313 140.157 56.9459C140.002 57.7217 139.866 58.4199 139.749 59.0406C139.361 59.0794 138.798 59.1182 138.06 59.157C137.361 59.157 136.604 59.1764 135.789 59.2152C134.973 59.2152 134.139 59.2152 133.284 59.2152C132.469 59.2152 131.751 59.2152 131.13 59.2152L129.091 69.6306C130.295 69.553 131.421 69.4948 132.469 69.456C133.323 69.4172 134.197 69.3978 135.09 69.3978C135.983 69.3978 136.643 69.3784 137.07 69.3396C136.915 70.4258 136.76 71.4926 136.604 72.5399C136.488 73.5873 136.332 74.654 136.138 75.7402C135.75 75.779 135.109 75.8178 134.216 75.8566C133.362 75.8566 132.489 75.876 131.595 75.9148C130.586 75.9535 129.479 75.9923 128.276 76.0311L126.296 86.7375L134.799 85.3992L134.216 92.0325L115.404 94.9418Z" fill="#424CFF"/>
<path d="M140.03 94.9418C140.923 90.6748 141.777 86.4659 142.593 82.3153C142.942 80.5697 143.291 78.7465 143.641 76.8457C143.99 74.945 144.32 73.083 144.631 71.2598C144.98 69.3978 145.272 67.6134 145.505 65.9066C145.776 64.161 146.009 62.5706 146.204 61.1353C145.311 61.0189 144.398 60.9802 143.466 61.0189C142.573 61.0577 141.68 60.9414 140.787 60.6698C140.826 60.0492 140.845 59.3315 140.845 58.5169C140.845 57.7023 140.865 56.8877 140.904 56.0731C140.942 55.1809 140.981 54.2305 141.02 53.2219C142.03 53.2995 143.039 53.3577 144.049 53.3965C145.058 53.4353 146.068 53.4547 147.077 53.4547C149.057 53.4547 150.96 53.4159 152.785 53.3383C154.649 53.2219 156.357 53.1055 157.91 52.9892C159.502 52.834 161.055 52.6594 162.569 52.4655L161.929 55.6076C161.735 56.4998 161.54 57.4114 161.346 58.3424C161.191 59.2733 161.036 60.0686 160.88 60.728C160.026 60.9608 159.153 61.1353 158.259 61.2517C157.405 61.3293 156.551 61.4456 155.697 61.6008C155.425 62.9197 155.134 64.3938 154.823 66.023C154.513 67.6134 154.202 69.2815 153.891 71.0271C153.62 72.7339 153.348 74.4795 153.076 76.2639C152.804 78.0483 152.532 79.7551 152.261 81.3843C151.639 85.2246 151.057 89.2007 150.513 93.3126L140.03 94.9418Z" fill="#424CFF"/>
<path d="M181.69 80.5115C181.69 82.6838 181.263 84.6622 180.409 86.4466C179.593 88.1922 178.467 89.705 177.031 90.9851C175.633 92.2652 173.963 93.2544 172.022 93.9526C170.12 94.6509 168.062 95 165.849 95C164.295 95 162.742 94.5927 161.189 93.7781C159.636 92.9247 158.141 91.5864 156.705 89.7632L161.015 81.3261C161.286 81.8304 161.694 82.3541 162.238 82.8972C162.781 83.4014 163.383 83.8475 164.043 84.2355C164.742 84.6234 165.421 84.9531 166.082 85.2246C166.78 85.4574 167.402 85.5738 167.945 85.5738C168.411 85.5738 168.897 85.4962 169.401 85.341C169.906 85.1858 170.372 84.9531 170.799 84.6428C171.226 84.3324 171.556 83.9833 171.789 83.5954C172.061 83.1687 172.197 82.6838 172.197 82.1407C172.197 81.2097 171.886 80.3563 171.265 79.5805C170.683 78.7659 169.945 78.0095 169.052 77.3112C168.159 76.5742 167.188 75.8372 166.14 75.1001C165.091 74.3631 164.121 73.5873 163.228 72.7727C162.374 71.9581 161.636 71.0465 161.015 70.0379C160.393 69.0293 160.083 67.9044 160.083 66.6631C160.083 64.6459 160.685 62.7645 161.888 61.0189C163.092 59.2733 164.587 57.7799 166.373 56.5386C168.198 55.2585 170.178 54.2499 172.313 53.5129C174.449 52.7758 176.468 52.4073 178.37 52.4073C179.419 52.4073 180.409 52.5431 181.341 52.8146C182.273 53.0474 183.069 53.4547 183.729 54.0365C184.427 54.5796 184.971 55.2779 185.359 56.1313C185.786 56.9847 186 58.0514 186 59.3315C186 59.8746 185.942 60.4177 185.825 60.9608C185.748 61.5038 185.67 62.0857 185.592 62.7064L177.147 65.1502C177.225 64.8399 177.283 64.5295 177.322 64.2192C177.4 63.9089 177.439 63.5986 177.439 63.2882C177.439 62.1245 177.225 61.2905 176.798 60.7862C176.41 60.2431 175.885 59.9716 175.225 59.9716C174.915 59.9716 174.526 60.088 174.061 60.3207C173.633 60.5535 173.187 60.8638 172.721 61.2517C172.294 61.6008 171.925 62.0275 171.614 62.5318C171.304 63.0361 171.149 63.5792 171.149 64.161C171.149 65.092 171.401 65.8678 171.906 66.4885C172.449 67.1092 173.109 67.691 173.886 68.2341C174.662 68.7772 175.497 69.3396 176.39 69.9215C177.322 70.4646 178.176 71.1822 178.953 72.0744C179.729 72.9666 180.37 74.0916 180.875 75.4493C181.418 76.7682 181.69 78.4556 181.69 80.5115Z" fill="#424CFF"/>
</svg>
