<svg width="121" height="20" viewBox="0 0 121 20" fill="none" xmlns="http://www.w3.org/2000/svg">
<path d="M11.047 13.3245C11.047 14.3135 10.8582 15.2141 10.4805 16.0265C10.12 16.8212 9.62215 17.5099 8.98697 18.0927C8.36896 18.6755 7.63077 19.1258 6.77242 19.4437C5.93123 19.7616 5.02137 19.9205 4.04285 19.9205C3.35617 19.9205 2.66948 19.7351 1.9828 19.3642C1.29612 18.9757 0.635182 18.3664 0 17.5364L1.90555 13.6954C2.02572 13.9249 2.20597 14.1634 2.44631 14.4106C2.68665 14.6402 2.95274 14.8433 3.24458 15.0199C3.55359 15.1965 3.85401 15.3466 4.14585 15.4702C4.45486 15.5762 4.72953 15.6291 4.96987 15.6291C5.17588 15.6291 5.39047 15.5938 5.61364 15.5232C5.83681 15.4525 6.04282 15.3466 6.23165 15.2053C6.42049 15.064 6.56641 14.9051 6.66941 14.7285C6.78958 14.5342 6.84967 14.3135 6.84967 14.0662C6.84967 13.6424 6.71233 13.2539 6.43766 12.9007C6.18015 12.5298 5.85398 12.1854 5.45914 11.8675C5.06429 11.532 4.63512 11.1965 4.1716 10.8609C3.70809 10.5254 3.27891 10.1722 2.88407 9.80132C2.5064 9.43046 2.18022 9.01545 1.90555 8.55629C1.63087 8.09713 1.49354 7.58499 1.49354 7.01987C1.49354 6.10154 1.75963 5.24503 2.29181 4.45033C2.82399 3.65563 3.48492 2.97572 4.27461 2.41059C5.08146 1.82781 5.95698 1.36865 6.90117 1.03311C7.84536 0.69757 8.73805 0.5298 9.57924 0.5298C10.0427 0.5298 10.4805 0.59161 10.8925 0.715229C11.3045 0.82119 11.6565 1.00662 11.9483 1.27152C12.2573 1.51876 12.4976 1.83664 12.6693 2.22516C12.8582 2.61368 12.9526 3.09934 12.9526 3.68212C12.9526 3.92936 12.9268 4.1766 12.8753 4.42384C12.841 4.67108 12.8067 4.93598 12.7723 5.21854L9.03847 6.33112C9.07281 6.18984 9.09856 6.04856 9.11573 5.90728C9.15006 5.766 9.16723 5.62472 9.16723 5.48344C9.16723 4.95364 9.07281 4.57395 8.88397 4.34437C8.7123 4.09713 8.48054 3.97351 8.1887 3.97351C8.05137 3.97351 7.87969 4.02649 7.67369 4.13245C7.48485 4.23841 7.28743 4.37969 7.08143 4.55629C6.89259 4.71523 6.7295 4.90949 6.59216 5.13907C6.45483 5.36865 6.38616 5.61589 6.38616 5.88079C6.38616 6.30463 6.49775 6.65783 6.72092 6.94039C6.96126 7.22296 7.2531 7.48786 7.59644 7.7351C7.93978 7.98234 8.30887 8.23841 8.70372 8.50331C9.11573 8.75055 9.4934 9.07726 9.83674 9.48344C10.1801 9.88962 10.4633 10.4018 10.6865 11.0199C10.9269 11.6203 11.047 12.3885 11.047 13.3245Z" fill="white"/>
<path d="M10.627 19.894C11.142 17.5099 11.6312 15.1788 12.0948 12.9007C12.2836 11.947 12.481 10.9404 12.687 9.88079C12.893 8.82119 13.0904 7.77925 13.2793 6.75496C13.4681 5.73068 13.6484 4.74172 13.82 3.78808C13.9917 2.83443 14.1376 1.96026 14.2578 1.16556C14.7557 1.00662 15.2449 0.87417 15.7256 0.76821C16.2063 0.64459 16.6955 0.538629 17.1934 0.450329C17.7084 0.362029 18.1891 0.317879 18.6354 0.317879C19.4079 0.317879 20.0517 0.450329 20.5667 0.715229C21.0989 0.980131 21.5281 1.34216 21.8542 1.80132C22.1804 2.24282 22.4122 2.7638 22.5495 3.36424C22.6868 3.96468 22.7555 4.60927 22.7555 5.29801C22.7555 6.28697 22.5753 7.24062 22.2148 8.15894C21.8714 9.07726 21.3993 9.89845 20.7985 10.6225C20.2148 11.3289 19.5367 11.894 18.7642 12.3179C18.0088 12.7417 17.2191 12.9536 16.3951 12.9536H16.1119C15.9745 13.5541 15.8458 14.2075 15.7256 14.9139C15.6054 15.6203 15.5024 16.2737 15.4166 16.8742C15.2964 17.5806 15.1848 18.287 15.0818 18.9934L10.627 19.894ZM17.8114 3.52318C17.6226 4.68874 17.4337 5.79249 17.2449 6.83443C17.056 7.87638 16.85 8.98896 16.6269 10.1722C16.9015 10.1015 17.1848 9.9426 17.4766 9.69536C17.7856 9.43046 18.0689 9.09492 18.3264 8.68874C18.5839 8.2649 18.7899 7.77925 18.9444 7.23179C19.0989 6.68432 19.1762 6.11037 19.1762 5.50993C19.1762 4.85651 19.0303 4.36203 18.7384 4.02649C18.4637 3.69095 18.1547 3.52318 17.8114 3.52318Z" fill="white"/>
<path d="M34.8817 5.53642C34.8817 6.98455 34.7272 8.3532 34.4181 9.64238C34.1263 10.9139 33.7315 12.0883 33.2336 13.1656C32.7358 14.2252 32.1521 15.1788 31.4826 16.0265C30.8302 16.8565 30.1435 17.5717 29.4225 18.1722C28.7015 18.755 27.9719 19.2053 27.2337 19.5232C26.4955 19.8234 25.7917 19.9735 25.1222 19.9735C24.5556 19.9735 24.0406 19.8675 23.5771 19.6556C23.1136 19.426 22.7102 19.0993 22.3668 18.6755C22.0235 18.234 21.7488 17.6777 21.5428 17.0066C21.354 16.3179 21.2596 15.4967 21.2596 14.543C21.2596 13.5541 21.3797 12.5121 21.6201 11.4172C21.8604 10.3223 22.1866 9.2362 22.5986 8.15894C23.0106 7.08168 23.517 6.05739 24.1179 5.08609C24.7187 4.11479 25.3797 3.25828 26.1007 2.51655C26.8217 1.75717 27.5942 1.15673 28.4182 0.715229C29.2423 0.273729 30.1006 0.0529785 30.9933 0.0529785C31.7658 0.0529785 32.401 0.220749 32.8989 0.55629C33.4139 0.87417 33.8087 1.29801 34.0834 1.82781C34.3752 2.33995 34.5812 2.92274 34.7014 3.57616C34.8216 4.22958 34.8817 4.883 34.8817 5.53642ZM25.0964 13.8543C25.0964 14.0486 25.1307 14.2517 25.1994 14.4636C25.2681 14.6755 25.3625 14.8609 25.4827 15.0199C25.6028 15.1788 25.7488 15.3201 25.9204 15.4437C26.1093 15.5497 26.3067 15.6026 26.5127 15.6026C27.2852 15.6026 27.9719 15.3289 28.5727 14.7815C29.1736 14.234 29.6714 13.5629 30.0663 12.7682C30.4611 11.9735 30.7615 11.1258 30.9676 10.2252C31.1907 9.3245 31.3023 8.50331 31.3023 7.76159C31.3023 7.54967 31.2851 7.32009 31.2508 7.07285C31.2336 6.8256 31.1821 6.59602 31.0963 6.3841C31.0276 6.17218 30.9075 5.99558 30.7358 5.8543C30.5813 5.69536 30.3667 5.61589 30.092 5.61589C29.5427 5.61589 29.0363 5.75717 28.5727 6.03973C28.1092 6.32229 27.6886 6.70198 27.311 7.17881C26.9505 7.63797 26.6329 8.16777 26.3582 8.76821C26.0835 9.35099 25.8432 9.95143 25.6372 10.5695C25.4483 11.17 25.311 11.7616 25.2252 12.3444C25.1393 12.9272 25.0964 13.4305 25.0964 13.8543Z" fill="white"/>
<path d="M33.2636 19.894C33.7271 17.5453 34.1734 15.2494 34.6026 13.0066C34.7571 12.053 34.9288 11.064 35.1176 10.0397C35.3065 8.99779 35.4781 7.97351 35.6326 6.96689C35.8043 5.9426 35.9588 4.96247 36.0962 4.02649C36.2507 3.07285 36.3708 2.2075 36.4567 1.43046C37.4352 1.11258 38.491 0.883 39.624 0.741719C40.757 0.58278 41.8815 0.50331 42.9973 0.50331C43.6668 0.50331 44.2162 0.58278 44.6454 0.741719C45.0917 0.90066 45.4351 1.13024 45.6754 1.43046C45.9329 1.71302 46.1132 2.04856 46.2162 2.43708C46.3192 2.8256 46.3707 3.25828 46.3707 3.7351C46.3707 4.4415 46.2505 5.13907 46.0102 5.82781C45.7698 6.49889 45.4436 7.14349 45.0316 7.76159C44.6368 8.36203 44.1733 8.91832 43.6411 9.43046C43.1261 9.92494 42.5682 10.3311 41.9673 10.649C42.2763 11.3554 42.6025 12.1324 42.9458 12.9801C43.3063 13.8102 43.6411 14.6049 43.9501 15.3642C44.2934 16.2472 44.6454 17.1302 45.0059 18.0132L41.0145 19.4437C40.6712 18.3135 40.3622 17.2539 40.0875 16.2649C39.9673 15.8587 39.8472 15.4437 39.727 15.0199C39.6068 14.5784 39.4952 14.1634 39.3922 13.7748C39.2892 13.3863 39.2034 13.0419 39.1347 12.7417C39.0661 12.4238 39.0231 12.1678 39.006 11.9735L38.6712 12.0795C38.5682 12.6446 38.4395 13.3068 38.285 14.0662C38.1476 14.8256 38.0189 15.5585 37.8987 16.2649C37.7442 17.0949 37.5897 17.9338 37.4352 18.7815L33.2636 19.894ZM39.315 8.39735C39.6412 8.36203 40.036 8.22075 40.4995 7.97351C40.9802 7.72627 41.4351 7.43488 41.8643 7.09934C42.2935 6.74613 42.6626 6.3841 42.9716 6.01324C43.2806 5.64238 43.4351 5.31567 43.4351 5.03311C43.4351 4.83885 43.375 4.68874 43.2548 4.58278C43.1347 4.45916 42.963 4.37086 42.7398 4.31788C42.5338 4.24724 42.3021 4.20309 42.0446 4.18543C41.787 4.16777 41.521 4.15894 41.2463 4.15894C41.0574 4.15894 40.86 4.16777 40.654 4.18543C40.4652 4.18543 40.2935 4.18543 40.139 4.18543L39.315 8.39735Z" fill="white"/>
<path d="M46.9201 19.894C47.3149 17.9514 47.6926 16.0353 48.0531 14.1457C48.2076 13.351 48.3621 12.521 48.5166 11.6556C48.6711 10.7903 48.817 9.9426 48.9544 9.11258C49.1089 8.2649 49.2376 7.45254 49.3406 6.67549C49.4608 5.88079 49.5638 5.15673 49.6496 4.50331C49.2548 4.45033 48.8514 4.43267 48.4394 4.45033C48.0445 4.46799 47.6497 4.41501 47.2548 4.29139C47.272 4.00883 47.2806 3.68212 47.2806 3.31126C47.2806 2.9404 47.2892 2.56953 47.3063 2.19867C47.3235 1.79249 47.3407 1.35982 47.3578 0.900661C47.8042 0.93598 48.2505 0.96247 48.6969 0.98013C49.1432 0.997791 49.5896 1.00662 50.0359 1.00662C50.9114 1.00662 51.7526 0.988961 52.5595 0.95364C53.3835 0.900661 54.1388 0.847681 54.8255 0.7947C55.5294 0.72406 56.2161 0.64459 56.8856 0.55629L56.6023 1.98675C56.5165 2.39293 56.4306 2.80795 56.3448 3.23179C56.2761 3.65563 56.2075 4.01766 56.1388 4.31788C55.7611 4.42384 55.3749 4.50331 54.98 4.55629C54.6024 4.59161 54.2247 4.64459 53.847 4.71523C53.7268 5.31567 53.5981 5.98675 53.4607 6.72847C53.3234 7.45254 53.1861 8.21192 53.0487 9.00662C52.9286 9.78366 52.8084 10.5784 52.6882 11.3907C52.5681 12.2031 52.4479 12.9801 52.3277 13.7219C52.053 15.4702 51.7955 17.2803 51.5552 19.1523L46.9201 19.894Z" fill="white"/>
<path d="M58.8843 19.894C59.3993 17.5099 59.8886 15.1788 60.3521 12.9007C60.5409 11.947 60.7383 10.9404 60.9443 9.8808C61.1503 8.82119 61.3478 7.77925 61.5366 6.75497C61.7254 5.73069 61.9057 4.74172 62.0774 3.78808C62.249 2.83444 62.3949 1.96027 62.5151 1.16556C63.013 1.00662 63.5022 0.874173 63.9829 0.768213C64.4636 0.644592 64.9528 0.538632 65.4507 0.450332C65.9657 0.362031 66.4464 0.317881 66.8927 0.317881C67.6652 0.317881 68.309 0.450332 68.824 0.715232C69.3562 0.980133 69.7854 1.34216 70.1116 1.80132C70.4377 2.24283 70.6695 2.7638 70.8068 3.36424C70.9442 3.96468 71.0128 4.60927 71.0128 5.29801C71.0128 6.28698 70.8326 7.24062 70.4721 8.15894C70.1287 9.07726 69.6566 9.89845 69.0558 10.6225C68.4721 11.3289 67.794 11.894 67.0215 12.3179C66.2661 12.7417 65.4764 12.9536 64.6524 12.9536H64.3692C64.2318 13.5541 64.1031 14.2075 63.9829 14.9139C63.8627 15.6203 63.7597 16.2737 63.6739 16.8742C63.5537 17.5806 63.4421 18.287 63.3391 18.9934L58.8843 19.894ZM66.0687 3.52318C65.8799 4.68874 65.691 5.7925 65.5022 6.83444C65.3134 7.87638 65.1073 8.98896 64.8842 10.1722C65.1588 10.1015 65.4421 9.94261 65.7339 9.69537C66.043 9.43046 66.3262 9.09492 66.5837 8.68874C66.8412 8.2649 67.0472 7.77925 67.2017 7.23179C67.3562 6.68433 67.4335 6.11038 67.4335 5.50993C67.4335 4.85651 67.2876 4.36203 66.9957 4.02649C66.7211 3.69095 66.412 3.52318 66.0687 3.52318Z" fill="white"/>
<path d="M83.139 5.53643C83.139 6.98455 82.9845 8.3532 82.6755 9.64239C82.3836 10.9139 81.9888 12.0883 81.4909 13.1656C80.9931 14.2252 80.4094 15.1788 79.7399 16.0265C79.0875 16.8565 78.4008 17.5717 77.6798 18.1722C76.9588 18.755 76.2292 19.2053 75.491 19.5232C74.7528 19.8234 74.049 19.9735 73.3795 19.9735C72.813 19.9735 72.2979 19.8675 71.8344 19.6556C71.3709 19.426 70.9675 19.0993 70.6242 18.6755C70.2808 18.234 70.0061 17.6777 69.8001 17.0066C69.6113 16.3179 69.5169 15.4967 69.5169 14.543C69.5169 13.5541 69.637 12.5121 69.8774 11.4172C70.1177 10.3223 70.4439 9.2362 70.8559 8.15894C71.2679 7.08168 71.7743 6.0574 72.3752 5.08609C72.976 4.11479 73.637 3.25828 74.358 2.51656C75.079 1.75718 75.8515 1.15673 76.6756 0.715232C77.4996 0.273731 78.3579 0.052981 79.2506 0.052981C80.0231 0.052981 80.6583 0.220751 81.1562 0.556292C81.6712 0.874173 82.066 1.29801 82.3407 1.82781C82.6325 2.33996 82.8385 2.92274 82.9587 3.57616C83.0789 4.22958 83.139 4.883 83.139 5.53643ZM73.3537 13.8543C73.3537 14.0486 73.3881 14.2517 73.4567 14.4636C73.5254 14.6755 73.6198 14.8609 73.74 15.0199C73.8601 15.1788 74.0061 15.3201 74.1777 15.4437C74.3666 15.5497 74.564 15.6027 74.77 15.6027C75.5425 15.6027 76.2292 15.3289 76.8301 14.7815C77.4309 14.234 77.9288 13.5629 78.3236 12.7682C78.7184 11.9735 79.0189 11.1258 79.2249 10.2252C79.448 9.3245 79.5596 8.50331 79.5596 7.76159C79.5596 7.54967 79.5425 7.32009 79.5081 7.07285C79.491 6.82561 79.4395 6.59603 79.3536 6.38411C79.285 6.17219 79.1648 5.99559 78.9931 5.8543C78.8386 5.69536 78.624 5.61589 78.3493 5.61589C77.8 5.61589 77.2936 5.75717 76.8301 6.03974C76.3665 6.3223 75.946 6.70199 75.5683 7.17881C75.2078 7.63797 74.8902 8.16777 74.6155 8.76821C74.3408 9.35099 74.1005 9.95144 73.8945 10.5695C73.7056 11.17 73.5683 11.7616 73.4825 12.3444C73.3966 12.9272 73.3537 13.4305 73.3537 13.8543Z" fill="white"/>
<path d="M85.7955 19.3377C85.641 19.3377 85.332 19.3642 84.8685 19.4172C84.4221 19.4525 83.9586 19.5055 83.4779 19.5762C82.9973 19.6291 82.5595 19.6821 82.1647 19.7351C81.787 19.7881 81.581 19.8234 81.5466 19.8411C81.7183 19.0817 81.89 18.2428 82.0617 17.3245C82.2505 16.3885 82.4393 15.4172 82.6282 14.4106C82.817 13.3863 82.9973 12.3532 83.1689 11.3113C83.3406 10.2693 83.5037 9.26269 83.6582 8.29139C84.0187 6.03091 84.3792 3.70861 84.7397 1.3245L88.7568 0.662253C88.362 3.0287 87.9757 5.35099 87.598 7.62914C87.4435 8.60044 87.2805 9.60707 87.1088 10.649C86.9543 11.691 86.7912 12.7241 86.6195 13.7483C86.465 14.7726 86.3191 15.7704 86.1818 16.7417C86.0444 17.6954 85.9157 18.5607 85.7955 19.3377Z" fill="white"/>
<path d="M86.7521 20C87.2671 17.457 87.7564 14.9934 88.2199 12.6093C88.3916 11.585 88.5718 10.5254 88.7606 9.43046C88.9666 8.33554 89.1555 7.25828 89.3272 6.19868C89.4988 5.12141 89.6533 4.09713 89.7907 3.12583C89.928 2.13687 90.031 1.24503 90.0997 0.450332C90.3228 0.467991 90.5117 0.476821 90.6662 0.476821C90.8207 0.476821 91.001 0.476821 91.207 0.476821C91.4473 0.476821 91.7391 0.476821 92.0825 0.476821C92.4258 0.459162 92.7692 0.441502 93.1125 0.423842C93.4558 0.406182 93.8249 0.388522 94.2198 0.370861C94.4601 1.60706 94.6747 2.79912 94.8635 3.94702C95.0524 4.95364 95.2412 5.98676 95.4301 7.04636C95.6361 8.10596 95.8163 9.00662 95.9708 9.74835C96.0395 9.39514 96.1167 8.98896 96.2026 8.5298C96.2884 8.05298 96.3828 7.5585 96.4858 7.04636C96.5888 6.53422 96.6833 6.02208 96.7691 5.50993C96.8721 4.98013 96.9751 4.45916 97.0781 3.94702C97.3184 2.79912 97.5674 1.6159 97.8249 0.397352L100.966 0C100.383 2.70199 99.8678 5.26269 99.4214 7.68212C99.2154 8.72406 99.0094 9.78367 98.8034 10.8609C98.6146 11.9205 98.4343 12.9448 98.2626 13.9338C98.091 14.9051 97.945 15.8146 97.8249 16.6623C97.7047 17.4923 97.6103 18.1898 97.5416 18.755C97.4901 18.755 97.2841 18.7991 96.9236 18.8874C96.5803 18.9581 96.1768 19.0464 95.7133 19.1523C95.267 19.2583 94.812 19.3642 94.3485 19.4702C93.9022 19.5762 93.5674 19.6733 93.3443 19.7616C93.2413 18.3488 93.1297 17.0066 93.0095 15.7351C92.958 15.1876 92.8979 14.6313 92.8292 14.0662C92.7777 13.4834 92.7177 12.9272 92.649 12.3974C92.5803 11.8676 92.5117 11.3731 92.443 10.9139C92.3743 10.4547 92.3057 10.0574 92.237 9.72186C92.1855 10.0574 92.1168 10.4459 92.031 10.8874C91.9451 11.3289 91.8593 11.7969 91.7735 12.2914C91.6876 12.7859 91.6018 13.3068 91.516 13.8543C91.4301 14.3841 91.3357 14.8962 91.2327 15.3907C91.0095 16.574 90.7692 17.8102 90.5117 19.0993L86.7521 20Z" fill="white"/>
<path d="M100.584 19.894C100.979 17.9514 101.357 16.0353 101.717 14.1457C101.872 13.351 102.026 12.521 102.181 11.6556C102.335 10.7903 102.481 9.94261 102.618 9.11258C102.773 8.2649 102.902 7.45254 103.005 6.6755C103.125 5.8808 103.228 5.15673 103.314 4.50331C102.919 4.45033 102.515 4.43267 102.103 4.45033C101.708 4.46799 101.314 4.41501 100.919 4.29139C100.936 4.00883 100.945 3.68212 100.945 3.31126C100.945 2.9404 100.953 2.56954 100.97 2.19868C100.987 1.79249 101.005 1.35982 101.022 0.900663C101.468 0.935983 101.914 0.962473 102.361 0.980132C102.807 0.997793 103.253 1.00662 103.7 1.00662C104.575 1.00662 105.417 0.988963 106.223 0.953643C107.047 0.900663 107.803 0.847683 108.489 0.794703C109.193 0.724062 109.88 0.644592 110.549 0.556292L110.266 1.98676C110.18 2.39294 110.095 2.80795 110.009 3.23179C109.94 3.65563 109.871 4.01766 109.803 4.31788C109.425 4.42384 109.039 4.50331 108.644 4.55629C108.266 4.59161 107.889 4.64459 107.511 4.71523C107.391 5.31567 107.262 5.98675 107.125 6.72848C106.987 7.45254 106.85 8.21192 106.713 9.00662C106.592 9.78366 106.472 10.5784 106.352 11.3907C106.232 12.2031 106.112 12.9801 105.992 13.7219C105.717 15.4702 105.459 17.2804 105.219 19.1523L100.584 19.894Z" fill="white"/>
<path d="M119.004 13.3245C119.004 14.3135 118.815 15.2141 118.437 16.0265C118.077 16.8212 117.579 17.5099 116.944 18.0927C116.325 18.6755 115.587 19.1258 114.729 19.4437C113.888 19.7616 112.978 19.9205 111.999 19.9205C111.313 19.9205 110.626 19.7351 109.939 19.3642C109.253 18.9757 108.592 18.3664 107.957 17.5364L109.862 13.6954C109.982 13.9249 110.163 14.1634 110.403 14.4106C110.643 14.6402 110.909 14.8433 111.201 15.0199C111.51 15.1965 111.811 15.3466 112.102 15.4702C112.411 15.5762 112.686 15.6291 112.926 15.6291C113.132 15.6291 113.347 15.5938 113.57 15.5232C113.793 15.4525 113.999 15.3466 114.188 15.2053C114.377 15.064 114.523 14.9051 114.626 14.7285C114.746 14.5342 114.806 14.3135 114.806 14.0662C114.806 13.6424 114.669 13.2539 114.394 12.9007C114.137 12.5298 113.811 12.1854 113.416 11.8675C113.021 11.532 112.592 11.1965 112.128 10.8609C111.665 10.5254 111.235 10.1722 110.841 9.80133C110.463 9.43046 110.137 9.01545 109.862 8.55629C109.587 8.09713 109.45 7.58499 109.45 7.01987C109.45 6.10155 109.716 5.24503 110.248 4.45033C110.781 3.65563 111.441 2.97572 112.231 2.4106C113.038 1.82782 113.914 1.36865 114.858 1.03311C115.802 0.697573 116.695 0.529802 117.536 0.529802C117.999 0.529802 118.437 0.591612 118.849 0.715232C119.261 0.821193 119.613 1.00662 119.905 1.27152C120.214 1.51876 120.454 1.83665 120.626 2.22517C120.815 2.61369 120.909 3.09934 120.909 3.68212C120.909 3.92936 120.883 4.1766 120.832 4.42384C120.798 4.67108 120.763 4.93598 120.729 5.21854L116.995 6.33113C117.029 6.18985 117.055 6.04857 117.072 5.90729C117.107 5.76601 117.124 5.62472 117.124 5.48344C117.124 4.95364 117.029 4.57395 116.84 4.34437C116.669 4.09713 116.437 3.97351 116.145 3.97351C116.008 3.97351 115.836 4.02649 115.63 4.13245C115.441 4.23841 115.244 4.37969 115.038 4.55629C114.849 4.71523 114.686 4.90949 114.549 5.13907C114.411 5.36865 114.343 5.61589 114.343 5.8808C114.343 6.30464 114.454 6.65784 114.677 6.9404C114.918 7.22296 115.21 7.48786 115.553 7.7351C115.896 7.98234 116.265 8.23841 116.66 8.50331C117.072 8.75055 117.45 9.07726 117.793 9.48344C118.137 9.88963 118.42 10.4018 118.643 11.0199C118.883 11.6203 119.004 12.3885 119.004 13.3245Z" fill="white"/>
</svg>
