<svg width="34" height="25" viewBox="0 0 34 25" fill="none" xmlns="http://www.w3.org/2000/svg">
<path d="M34 9.59595C34 8.83837 33.8759 7.95454 33.8759 6.94444C33.7519 5.93434 33.6277 4.92424 33.5037 4.0404C33.2555 3.0303 32.8832 2.27273 32.1387 1.64142C31.5182 1.0101 30.6496 0.631305 29.781 0.505043C26.927 0.126255 22.708 0 17 0C11.292 0 6.9489 0.126255 4.21897 0.505043C3.35036 0.631305 2.48175 1.0101 1.86131 1.64142C1.24088 2.27273 0.744518 3.0303 0.496343 4.0404C0.248168 4.92424 0.124095 5.80808 0.124095 6.94444C7.57186e-06 7.95454 0 8.83837 0 9.59595C0 10.3535 0 11.2374 0 12.5C0 13.7626 0 14.7727 0 15.404C0 16.1616 0.124095 17.0455 0.124095 18.0556C0.248183 19.0657 0.372255 20.0757 0.496343 20.9596C0.744518 21.9697 1.11679 22.7273 1.86131 23.3586C2.48175 23.9899 3.35036 24.3687 4.21897 24.4949C7.07299 24.8737 11.292 25 17 25C22.708 25 27.0511 24.8737 29.781 24.4949C30.6496 24.3687 31.5182 23.9899 32.1387 23.3586C32.7591 22.7273 33.2555 21.9697 33.5037 20.9596C33.7518 20.0757 33.8759 19.1919 33.8759 18.0556C34 17.0455 34 16.1616 34 15.404C34 14.6465 34 13.7626 34 12.5C34 11.2374 34 10.2273 34 9.59595ZM23.5766 13.5101L13.7737 19.697C13.6496 19.8232 13.4015 19.9495 13.1533 19.9495C12.9051 19.9495 12.781 19.9495 12.5329 19.8232C12.1606 19.5707 11.9124 19.1919 11.9124 18.6869V6.18686C11.9124 5.68181 12.1606 5.30303 12.5329 5.0505C12.9051 4.79798 13.4015 4.79798 13.7737 5.0505L23.5766 11.2374C23.9489 11.4899 24.1971 11.8687 24.1971 12.2475C24.1971 12.6263 23.9489 13.2576 23.5766 13.5101Z" fill="white"/>
</svg>
